<svg width="63" height="63" viewBox="0 0 63 63" fill="none" xmlns="http://www.w3.org/2000/svg">
<path d="M20.5062 2.17299e-05H42.4935C43.2258 -0.00015924 43.7873 -0.000297864 44.2781 0.0477127C47.7677 0.389073 50.624 2.48718 51.8352 5.31334H11.1645C12.3757 2.48718 15.232 0.389073 18.7216 0.0477127C19.2124 -0.000298046 19.7739 -0.00015924 20.5062 2.17299e-05Z" fill="white"/>
<path d="M13.5781 8.57782C9.19767 8.57782 5.60583 11.223 4.40717 14.7323C4.38218 14.8054 4.35823 14.879 4.33532 14.9528C5.5895 14.573 6.89474 14.3249 8.21607 14.1555C11.6192 13.7192 15.9201 13.7195 20.9161 13.7197H42.6262C47.6222 13.7195 51.923 13.7192 55.3262 14.1555C56.6475 14.3249 57.9528 14.573 59.2069 14.9528C59.184 14.879 59.1601 14.8054 59.1351 14.7323C57.9364 11.223 54.3446 8.57782 49.9641 8.57782H13.5781Z" fill="white"/>
<path d="M29.1375 47.25C29.1375 45.9452 28.0798 44.8875 26.775 44.8875C25.4702 44.8875 24.4125 45.9452 24.4125 47.25C24.4125 48.5548 25.4702 49.6125 26.775 49.6125C28.0798 49.6125 29.1375 48.5548 29.1375 47.25Z" fill="white"/>
<path fill-rule="evenodd" clip-rule="evenodd" d="M21.018 17.4574H41.982C52.6127 17.4574 57.928 17.4574 60.9137 20.5659C63.8994 23.6744 63.1969 28.4771 61.792 38.0821L60.4596 47.1906C59.3578 54.723 58.8069 58.4892 55.9808 60.7446C53.1546 63 48.9862 63 40.6496 63H22.3503C14.0137 63 9.84541 63 7.01927 60.7446C4.19312 58.4892 3.64222 54.723 2.54041 47.1906L1.20806 38.0821C-0.19693 28.477 -0.899424 23.6745 2.0863 20.5659C5.07203 17.4574 10.3874 17.4574 21.018 17.4574ZM33.8625 26.775C33.8625 25.4702 32.8048 24.4125 31.5 24.4125C30.1952 24.4125 29.1375 25.4702 29.1375 26.775V40.5658C28.3986 40.3046 27.6034 40.1625 26.775 40.1625C22.8607 40.1625 19.6875 43.3357 19.6875 47.25C19.6875 51.1643 22.8607 54.3375 26.775 54.3375C30.6893 54.3375 33.8625 51.1643 33.8625 47.25V35.6572C35.9737 37.3696 38.6243 38.5875 40.95 38.5875C42.2548 38.5875 43.3125 37.5298 43.3125 36.225C43.3125 34.9202 42.2548 33.8625 40.95 33.8625C39.9879 33.8625 38.1608 33.1739 36.4881 31.6899C34.8561 30.242 33.8625 28.4716 33.8625 26.775Z" fill="white"/>
</svg>
