<svg width="109" height="38" viewBox="0 0 109 38" fill="none" xmlns="http://www.w3.org/2000/svg">
<g clip-path="url(#clip0_8_39)">
<rect width="109" height="38" fill="#030211"/>
<path d="M17.88 30.3C16.42 30.3 15.05 30.03 13.77 29.49C12.51 28.93 11.4 28.16 10.44 27.18C9.5 26.2 8.76 25.06 8.22 23.76C7.68 22.46 7.41 21.06 7.41 19.56C7.41 18.06 7.68 16.67 8.22 15.39C8.76 14.09 9.51 12.95 10.47 11.97C11.43 10.99 12.55 10.23 13.83 9.69C15.13 9.15 16.54 8.88 18.06 8.88C19.72 8.88 21.25 9.2 22.65 9.84C24.05 10.48 25.22 11.4 26.16 12.6L24.21 14.55C23.55 13.59 22.68 12.86 21.6 12.36C20.52 11.84 19.34 11.58 18.06 11.58C16.54 11.58 15.19 11.92 14.01 12.6C12.85 13.28 11.94 14.22 11.28 15.42C10.64 16.62 10.32 18 10.32 19.56C10.32 21.14 10.65 22.53 11.31 23.73C11.97 24.93 12.86 25.87 13.98 26.55C15.1 27.23 16.38 27.57 17.82 27.57C19.28 27.57 20.54 27.29 21.6 26.73C22.68 26.17 23.51 25.35 24.09 24.27C24.67 23.17 24.96 21.83 24.96 20.25L26.67 21.48H17.67V18.9H27.87V19.32C27.87 21.74 27.44 23.77 26.58 25.41C25.74 27.03 24.56 28.25 23.04 29.07C21.54 29.89 19.82 30.3 17.88 30.3ZM37.7831 30.3C36.3631 30.3 35.0831 29.98 33.9431 29.34C32.8031 28.68 31.9031 27.79 31.2431 26.67C30.5831 25.55 30.2531 24.28 30.2531 22.86C30.2531 21.46 30.5731 20.2 31.2131 19.08C31.8731 17.96 32.7531 17.08 33.8531 16.44C34.9731 15.78 36.2231 15.45 37.6031 15.45C38.9231 15.45 40.0831 15.75 41.0831 16.35C42.1031 16.95 42.8931 17.78 43.4531 18.84C44.0331 19.9 44.3231 21.1 44.3231 22.44C44.3231 22.64 44.3131 22.86 44.2931 23.1C44.2731 23.32 44.2331 23.58 44.1731 23.88H32.1431V21.63H42.7331L41.7431 22.5C41.7431 21.54 41.5731 20.73 41.2331 20.07C40.8931 19.39 40.4131 18.87 39.7931 18.51C39.1731 18.13 38.4231 17.94 37.5431 17.94C36.6231 17.94 35.8131 18.14 35.1131 18.54C34.4131 18.94 33.8731 19.5 33.4931 20.22C33.1131 20.94 32.9231 21.79 32.9231 22.77C32.9231 23.77 33.1231 24.65 33.5231 25.41C33.9231 26.15 34.4931 26.73 35.2331 27.15C35.9731 27.55 36.8231 27.75 37.7831 27.75C38.5831 27.75 39.3131 27.61 39.9731 27.33C40.6531 27.05 41.2331 26.63 41.7131 26.07L43.4531 27.84C42.7731 28.64 41.9331 29.25 40.9331 29.67C39.9531 30.09 38.9031 30.3 37.7831 30.3ZM57.3471 30V21.69C57.3471 20.61 57.0071 19.72 56.3271 19.02C55.6471 18.32 54.7671 17.97 53.6871 17.97C52.9671 17.97 52.3271 18.13 51.7671 18.45C51.2071 18.77 50.7671 19.21 50.4471 19.77C50.1271 20.33 49.9671 20.97 49.9671 21.69L48.8571 21.06C48.8571 19.98 49.0971 19.02 49.5771 18.18C50.0571 17.34 50.7271 16.68 51.5871 16.2C52.4471 15.7 53.4171 15.45 54.4971 15.45C55.5771 15.45 56.5271 15.72 57.3471 16.26C58.1871 16.8 58.8471 17.51 59.3271 18.39C59.8071 19.25 60.0471 20.17 60.0471 21.15V30H57.3471ZM47.2671 30V15.75H49.9671V30H47.2671ZM63.7027 30V15.75H66.4027V30H63.7027ZM66.4027 21.87L65.3827 21.42C65.3827 19.6 65.8027 18.15 66.6427 17.07C67.4827 15.99 68.6927 15.45 70.2727 15.45C70.9927 15.45 71.6427 15.58 72.2227 15.84C72.8027 16.08 73.3427 16.49 73.8427 17.07L72.0727 18.9C71.7727 18.58 71.4427 18.35 71.0827 18.21C70.7227 18.07 70.3027 18 69.8227 18C68.8227 18 68.0027 18.32 67.3627 18.96C66.7227 19.6 66.4027 20.57 66.4027 21.87ZM81.8749 30.3C80.4549 30.3 79.1749 29.98 78.0349 29.34C76.8949 28.68 75.9949 27.79 75.3349 26.67C74.6749 25.55 74.3449 24.28 74.3449 22.86C74.3449 21.46 74.6649 20.2 75.3049 19.08C75.9649 17.96 76.8449 17.08 77.9449 16.44C79.0649 15.78 80.3149 15.45 81.6949 15.45C83.0149 15.45 84.1749 15.75 85.1749 16.35C86.1949 16.95 86.9849 17.78 87.5449 18.84C88.1249 19.9 88.4149 21.1 88.4149 22.44C88.4149 22.64 88.4049 22.86 88.3849 23.1C88.3649 23.32 88.3249 23.58 88.2649 23.88H76.2349V21.63H86.8249L85.8349 22.5C85.8349 21.54 85.6649 20.73 85.3249 20.07C84.9849 19.39 84.5049 18.87 83.8849 18.51C83.2649 18.13 82.5149 17.94 81.6349 17.94C80.7149 17.94 79.9049 18.14 79.2049 18.54C78.5049 18.94 77.9649 19.5 77.5849 20.22C77.2049 20.94 77.0149 21.79 77.0149 22.77C77.0149 23.77 77.2149 24.65 77.6149 25.41C78.0149 26.15 78.5849 26.73 79.3249 27.15C80.0649 27.55 80.9149 27.75 81.8749 27.75C82.6749 27.75 83.4049 27.61 84.0649 27.33C84.7449 27.05 85.3249 26.63 85.8049 26.07L87.5449 27.84C86.8649 28.64 86.0249 29.25 85.0249 29.67C84.0449 30.09 82.9949 30.3 81.8749 30.3ZM95.8889 30.3C95.0889 30.3 94.3289 30.2 93.6089 30C92.9089 29.78 92.2589 29.48 91.6589 29.1C91.0589 28.7 90.5389 28.23 90.0989 27.69L91.8389 25.95C92.3589 26.59 92.9589 27.07 93.6389 27.39C94.3189 27.69 95.0789 27.84 95.9189 27.84C96.7589 27.84 97.4089 27.7 97.8689 27.42C98.3289 27.12 98.5589 26.71 98.5589 26.19C98.5589 25.67 98.3689 25.27 97.9889 24.99C97.6289 24.69 97.1589 24.45 96.5789 24.27C95.9989 24.07 95.3789 23.88 94.7189 23.7C94.0789 23.5 93.4689 23.25 92.8889 22.95C92.3089 22.65 91.8289 22.24 91.4489 21.72C91.0889 21.2 90.9089 20.51 90.9089 19.65C90.9089 18.79 91.1189 18.05 91.5389 17.43C91.9589 16.79 92.5389 16.3 93.2789 15.96C94.0389 15.62 94.9489 15.45 96.0089 15.45C97.1289 15.45 98.1189 15.65 98.9789 16.05C99.8589 16.43 100.579 17.01 101.139 17.79L99.3989 19.53C98.9989 19.01 98.4989 18.61 97.8989 18.33C97.3189 18.05 96.6589 17.91 95.9189 17.91C95.1389 17.91 94.5389 18.05 94.1189 18.33C93.7189 18.59 93.5189 18.96 93.5189 19.44C93.5189 19.92 93.6989 20.29 94.0589 20.55C94.4189 20.81 94.8889 21.03 95.4689 21.21C96.0689 21.39 96.6889 21.58 97.3289 21.78C97.9689 21.96 98.5789 22.21 99.1589 22.53C99.7389 22.85 100.209 23.28 100.569 23.82C100.949 24.36 101.139 25.07 101.139 25.95C101.139 27.29 100.659 28.35 99.6989 29.13C98.7589 29.91 97.4889 30.3 95.8889 30.3Z" fill="white"/>
<g filter="url(#filter0_d_8_39)">
<rect width="94" height="2" transform="matrix(1 0 0 -1 8 36)" fill="white"/>
</g>
</g>
<defs>
<filter id="filter0_d_8_39" x="4" y="34" width="102" height="10" filterUnits="userSpaceOnUse" color-interpolation-filters="sRGB">
<feFlood flood-opacity="0" result="BackgroundImageFix"/>
<feColorMatrix in="SourceAlpha" type="matrix" values="0 0 0 0 0 0 0 0 0 0 0 0 0 0 0 0 0 0 127 0" result="hardAlpha"/>
<feOffset dy="4"/>
<feGaussianBlur stdDeviation="2"/>
<feComposite in2="hardAlpha" operator="out"/>
<feColorMatrix type="matrix" values="0 0 0 0 0 0 0 0 0 0 0 0 0 0 0 0 0 0 0.25 0"/>
<feBlend mode="normal" in2="BackgroundImageFix" result="effect1_dropShadow_8_39"/>
<feBlend mode="normal" in="SourceGraphic" in2="effect1_dropShadow_8_39" result="shape"/>
</filter>
<clipPath id="clip0_8_39">
<rect width="109" height="38" fill="white"/>
</clipPath>
</defs>
</svg>
