<svg width="115" height="115" viewBox="0 0 115 115" fill="none" xmlns="http://www.w3.org/2000/svg">
<circle cx="57.0338" cy="57.0338" r="56.6975" stroke="#EEEEEE" stroke-width="0.672506"/>
<circle cx="57.0338" cy="57.0338" r="36.2847" stroke="#EEEEEE" stroke-width="0.672506"/>
<path d="M57.147 56.2574L57.147 51.4101" stroke="#141414" stroke-width="1.34501" stroke-linecap="round" stroke-linejoin="round"/>
<rect x="47.727" y="41.4464" width="18.8401" height="30.0159" rx="9.42006" stroke="#030211" stroke-width="1.34501"/>
<path d="M29.578 25.4816C29.1568 25.8189 28.8199 26.0718 28.3987 26.3248C27.9776 26.5777 27.5564 26.662 27.1353 26.7464C26.9668 26.7464 26.7984 26.7464 26.7141 26.662C26.6299 26.5777 26.5457 26.4934 26.4614 26.3248C26.4614 26.2405 26.4614 26.0718 26.4614 25.9875C26.5457 25.9032 26.6299 25.8189 26.7984 25.8189C27.2195 25.7346 27.5564 25.6503 27.8934 25.4816C28.2303 25.313 28.5672 25.06 28.9041 24.8071C29.4095 24.3855 29.6622 24.0482 29.7464 23.6267C29.8307 23.2894 29.7464 22.9521 29.4937 22.6992C29.3253 22.4462 29.0726 22.3619 28.8199 22.3619C28.5672 22.3619 28.2303 22.5306 27.7249 22.6992L26.7141 23.2894C26.1245 23.6267 25.5349 23.7953 25.0295 23.711C24.5241 23.711 24.103 23.458 23.766 23.0365C23.4291 22.6992 23.2607 22.2776 23.2607 21.856C23.2607 21.4345 23.2607 21.0129 23.5134 20.5913C23.6818 20.1697 24.0187 19.7481 24.4399 19.4109C24.7768 19.1579 25.1137 18.905 25.5349 18.7363C25.8718 18.5677 26.293 18.4834 26.7141 18.4834C26.8826 18.4834 26.9668 18.4834 27.0511 18.5677C27.1353 18.652 27.2195 18.7363 27.2195 18.905C27.2195 18.9893 27.2195 19.1579 27.1353 19.2422C27.0511 19.3266 26.9668 19.4109 26.7984 19.4109C26.4614 19.4109 26.1245 19.4952 25.8718 19.6638C25.6191 19.8325 25.2822 20.0011 25.0295 20.1697C24.6084 20.507 24.3557 20.9286 24.2714 21.2658C24.1872 21.6874 24.2714 22.0247 24.5241 22.2776C24.6926 22.5306 24.9453 22.6149 25.198 22.6149C25.4507 22.6149 25.7876 22.5306 26.2087 22.2776L27.2195 21.6874C27.8934 21.3501 28.3987 21.1815 28.9041 21.1815C29.4095 21.1815 29.8307 21.4345 30.1676 21.7717C30.4203 22.109 30.5888 22.5306 30.673 22.8678C30.7572 23.2051 30.5888 23.711 30.4203 24.1326C30.3361 24.6385 29.9991 25.06 29.578 25.4816Z" fill="#030211"/>
<path d="M38.338 19.7482C37.6642 20.0855 36.9903 20.2541 36.3165 20.2541C35.6426 20.2541 35.053 20.0012 34.5476 19.5796C34.0422 19.158 33.5368 18.6521 33.1999 17.8933C32.863 17.1344 32.6103 16.4599 32.6103 15.7854C32.6103 15.1108 32.7788 14.5206 33.1157 14.0147C33.4526 13.5088 33.958 13.0029 34.7161 12.6657C35.1372 12.497 35.4741 12.3284 35.8953 12.2441C36.3165 12.1598 36.6534 12.1598 37.0745 12.2441C37.243 12.2441 37.4115 12.3284 37.4957 12.4127C37.5799 12.497 37.5799 12.6657 37.5799 12.75C37.5799 12.9186 37.4957 13.0029 37.4115 13.0872C37.3272 13.1716 37.1588 13.1716 36.9903 13.1716C36.6534 13.0872 36.4007 13.0872 36.0638 13.1716C35.7268 13.2559 35.4741 13.3402 35.2215 13.4245C34.4634 13.7618 34.0422 14.352 33.8738 14.9422C33.7053 15.5324 33.8738 16.3756 34.2949 17.2187C34.7161 18.0619 35.2215 18.6521 35.8953 18.905C36.4849 19.158 37.243 19.0737 37.9168 18.7364C38.1695 18.5678 38.4222 18.3991 38.6749 18.2305C38.9276 17.9776 39.0961 17.8089 39.2645 17.4717C39.3488 17.303 39.433 17.2187 39.6015 17.2187C39.6857 17.2187 39.8542 17.2187 39.9384 17.303C40.0226 17.3874 40.1068 17.4717 40.1911 17.6403C40.1911 17.8089 40.1911 17.8933 40.1068 18.0619C39.9384 18.3991 39.6857 18.7364 39.433 19.0737C39.0118 19.2423 38.6749 19.4953 38.338 19.7482Z" fill="#030211"/>
<path d="M45.0765 17.05C44.7396 17.1343 44.4869 16.9657 44.4026 16.6285L42.9707 10.1361C42.8865 9.79886 43.0549 9.54591 43.3919 9.4616L45.9188 8.87139C46.7611 8.70275 47.4349 8.70275 47.9403 9.04002C48.4457 9.29297 48.7826 9.79886 48.9511 10.5577C49.0353 11.1479 49.0353 11.6538 48.7826 12.0754C48.5299 12.497 48.193 12.8342 47.6876 13.0872C48.0246 13.0872 48.4457 13.3401 48.6984 13.6774L49.9619 15.1951C50.1303 15.3637 50.2146 15.5323 50.1303 15.701C50.1303 15.8696 49.9619 15.9539 49.7092 16.0382C49.5407 16.0382 49.4565 16.0382 49.288 16.0382C49.2038 16.0382 49.0353 15.9539 48.9511 15.7853L47.3507 13.9303C47.098 13.6774 46.9296 13.5088 46.6769 13.5088C46.4242 13.4244 46.1715 13.4244 45.9188 13.5088L44.7396 13.7617L45.3292 16.3755C45.5819 16.7128 45.4134 16.9657 45.0765 17.05ZM44.7396 12.9186L46.5926 12.497C47.6876 12.244 48.1088 11.6538 47.9403 10.8107C47.7719 9.88318 47.098 9.54591 46.003 9.79886L44.1499 10.2204L44.7396 12.9186Z" fill="#030211"/>
<path d="M57.8796 15.6167C57.1215 15.6167 56.5319 15.3638 55.9423 15.0265C55.4369 14.6892 55.0157 14.1833 54.763 13.5931C54.5103 13.0029 54.3419 12.2441 54.4261 11.4852C54.4261 10.6421 54.5946 9.96754 54.9315 9.37733C55.2684 8.78712 55.6896 8.36554 56.195 8.02827C56.7846 7.77533 57.3742 7.69101 58.1323 7.69101C58.8903 7.69101 59.48 7.85964 59.9853 8.28122C60.4907 8.61848 60.9119 9.12438 61.1646 9.71459C61.4173 10.3048 61.5857 10.9793 61.5015 11.8225C61.5015 12.6656 61.333 13.3402 60.9961 13.9304C60.7434 14.4363 60.3223 14.8579 59.8169 15.1951C59.3115 15.5324 58.5534 15.6167 57.8796 15.6167ZM57.8796 14.6049C58.6377 14.6049 59.2273 14.352 59.7327 13.8461C60.1538 13.3402 60.4065 12.5813 60.4907 11.6539C60.4907 10.7264 60.3223 9.96754 59.9011 9.46164C59.48 8.95575 58.8903 8.61848 58.1323 8.61848C57.3742 8.61848 56.7846 8.78712 56.2792 9.29301C55.858 9.79891 55.6053 10.5578 55.5211 11.4852C55.4369 12.4127 55.6896 13.1715 56.1107 13.6774C56.5319 14.352 57.1215 14.6049 57.8796 14.6049Z" fill="#030211"/>
<path d="M66.3027 16.6284C65.9658 16.5441 65.7973 16.2912 65.8815 15.8696L67.7346 9.54591C67.8188 9.20865 68.0715 9.04001 68.4085 9.12433C68.7454 9.20865 68.9138 9.46159 68.8296 9.79886L67.145 15.7853L70.43 16.7128C70.7669 16.7971 70.8512 16.9657 70.7669 17.303C70.6827 17.6402 70.43 17.7246 70.1773 17.6402L66.3027 16.6284Z" fill="#030211"/>
<path d="M74.6415 19.6639C74.3046 19.4953 74.2204 19.2423 74.3888 18.9051L77.5054 13.0873C77.6739 12.75 77.9266 12.6657 78.2635 12.8343C78.6004 13.0029 78.6846 13.2559 78.5162 13.5932L75.5681 19.0737L78.5162 20.6757C78.8531 20.8443 78.8531 21.0973 78.7689 21.3502C78.6004 21.6032 78.3477 21.6875 78.095 21.5189L74.6415 19.6639Z" fill="#030211"/>
<path d="M86.5181 28.3484C86.2654 28.0111 86.2654 27.7582 86.6023 27.5052L91.572 23.3738C91.9089 23.1208 92.1616 23.1208 92.4143 23.4581L93.762 25.0601C94.6043 26.0719 94.9412 26.9993 94.857 27.9268C94.7727 28.8543 94.2674 29.7818 93.3408 30.5406C92.4143 31.2995 91.4035 31.721 90.477 31.5524C89.5504 31.4681 88.6239 30.8779 87.7816 29.9504L86.5181 28.3484ZM87.6131 28.1798L88.6239 29.3602C89.8874 30.7936 91.235 30.9622 92.667 29.6974C94.1831 28.4327 94.2674 27.0837 93.0881 25.6503L92.0774 24.4699L87.6131 28.1798Z" fill="#030211"/>
<path d="M94.0147 39.8155C93.6777 39.1409 93.5935 38.4664 93.6777 37.8762C93.762 37.286 94.0147 36.6958 94.4358 36.1899C94.857 35.684 95.4466 35.2624 96.1204 34.9251C96.8785 34.5879 97.5524 34.4193 98.2262 34.4193C98.9001 34.4193 99.4897 34.6722 99.9951 35.0095C100.5 35.3467 100.922 35.8526 101.259 36.5271C101.595 37.2017 101.68 37.8762 101.595 38.4664C101.511 39.0566 101.259 39.6468 100.837 40.1527C100.416 40.6586 99.8266 41.0802 99.1528 41.4175C98.3947 41.7547 97.7208 41.9234 97.047 41.9234C96.3731 41.9234 95.7835 41.6704 95.2781 41.3332C94.6885 40.9959 94.3516 40.49 94.0147 39.8155ZM94.9412 39.3939C95.2781 40.0684 95.7835 40.49 96.3731 40.6586C97.047 40.8273 97.8051 40.7429 98.6474 40.3214C99.4897 39.8998 100.079 39.3939 100.416 38.8037C100.753 38.2135 100.669 37.5389 100.416 36.8644C100.079 36.1899 99.5739 35.7683 98.9843 35.5997C98.3104 35.431 97.5524 35.5154 96.7101 35.9369C95.8677 36.3585 95.2781 36.8644 94.9412 37.4546C94.6043 38.0448 94.6043 38.7194 94.9412 39.3939Z" fill="#030211"/>
<path d="M97.1312 49.5117C97.1312 49.1744 97.2154 49.0058 97.5524 48.8372L103.954 45.7175C104.122 45.6332 104.291 45.6332 104.459 45.7175C104.628 45.8018 104.712 45.9704 104.712 46.1391C104.712 46.3077 104.712 46.392 104.628 46.5606C104.544 46.6449 104.459 46.7293 104.291 46.8136L98.9001 49.4274L104.796 50.6921C105.133 50.7764 105.302 50.9451 105.302 51.198C105.302 51.3666 105.302 51.451 105.217 51.5353C105.133 51.6196 105.049 51.7039 104.88 51.7882L99.4054 54.402L105.386 55.6668C105.554 55.6668 105.639 55.7511 105.723 55.8354C105.807 55.9197 105.891 56.004 105.891 56.1727C105.891 56.3413 105.891 56.5099 105.723 56.5942C105.639 56.6785 105.47 56.7629 105.217 56.6785L98.2262 55.1609C98.0577 55.0765 97.8893 55.0765 97.8051 54.9922C97.7208 54.9079 97.6366 54.8236 97.6366 54.655C97.6366 54.4863 97.6366 54.3177 97.7208 54.2334C97.8051 54.1491 97.8893 54.0648 98.0577 53.9804L103.364 51.3666L97.5524 50.1019C97.3839 50.1019 97.2154 50.0176 97.1312 49.9333C97.2154 49.7646 97.2154 49.6803 97.1312 49.5117Z" fill="#030211"/>
<path d="M97.5524 62.2435C97.6366 61.9062 97.8051 61.7376 98.2262 61.8219L104.88 63.0866C105.049 63.0866 105.217 63.171 105.302 63.3396C105.386 63.4239 105.386 63.5925 105.386 63.7612C105.386 63.9298 105.302 64.0141 105.217 64.0141C105.133 64.0141 105.049 64.0984 104.88 64.1827L98.5631 67.3024L103.87 68.3142C104.207 68.3985 104.375 68.5672 104.291 68.9044C104.207 69.2417 104.038 69.4103 103.701 69.326L97.047 68.0613C96.8785 68.0613 96.7943 67.977 96.71 67.8927C96.6258 67.8083 96.6258 67.6397 96.6258 67.5554C96.6258 67.3868 96.7101 67.3024 96.7943 67.2181C96.8785 67.1338 96.9627 67.0495 97.1312 67.0495L103.449 63.9298L98.142 62.918C97.6366 62.7494 97.4681 62.5807 97.5524 62.2435Z" fill="#030211"/>
<path d="M83.2331 88.4657C83.6542 88.1284 83.9912 87.8755 84.4123 87.6225C84.8335 87.3696 85.2546 87.2852 85.6758 87.2009C85.8443 87.2009 86.0127 87.2009 86.0969 87.2852C86.1812 87.3696 86.2654 87.4539 86.3496 87.6225C86.3496 87.7068 86.3496 87.8755 86.3496 87.9598C86.3496 88.0441 86.1812 88.1284 86.0127 88.1284C85.5916 88.2127 85.2546 88.297 84.9177 88.4657C84.5808 88.6343 84.2439 88.8872 83.9069 89.1402C83.4016 89.5618 83.1489 89.899 83.0646 90.3206C82.9804 90.6579 83.0646 90.9951 83.3173 91.2481C83.4858 91.501 83.7385 91.5854 83.9912 91.5854C84.2439 91.5854 84.5808 91.4167 85.0862 91.1638L86.0969 90.5736C86.6866 90.2363 87.2762 90.0677 87.7816 90.152C88.2869 90.152 88.7081 90.4049 89.045 90.8265C89.382 91.1638 89.5504 91.5854 89.5504 92.0069C89.6346 92.4285 89.5504 92.8501 89.2977 93.2717C89.1293 93.6933 88.7923 94.1148 88.3712 94.4521C88.0343 94.7894 87.6973 94.958 87.2762 95.1266C86.9393 95.2953 86.5181 95.3796 86.0969 95.3796C85.9285 95.3796 85.8443 95.3796 85.76 95.2953C85.6758 95.2109 85.5916 95.1266 85.5916 94.958C85.5916 94.7894 85.5916 94.705 85.6758 94.6207C85.76 94.5364 85.8443 94.4521 86.0127 94.4521C86.3496 94.4521 86.6866 94.2835 86.9393 94.1991C87.1919 94.0305 87.5289 93.8619 87.7816 93.6933C88.2027 93.356 88.4554 92.9344 88.5396 92.5971C88.6239 92.1756 88.5396 91.8383 88.2869 91.5854C88.1185 91.3324 87.8658 91.2481 87.6131 91.2481C87.3604 91.2481 87.0235 91.3324 86.6023 91.5854L85.5916 92.1756C84.9177 92.5128 84.4123 92.6815 83.9069 92.6815C83.4016 92.6815 82.9804 92.4285 82.6435 92.0912C82.3066 91.754 82.2223 91.3324 82.1381 90.9951C82.1381 90.5736 82.2223 90.152 82.3908 89.7304C82.475 89.3088 82.8119 88.8872 83.2331 88.4657Z" fill="#030211"/>
<path d="M74.4731 94.1993C75.1469 93.862 75.8208 93.6934 76.4946 93.6934C77.1685 93.6934 77.7581 93.9463 78.2635 94.3679C78.7689 94.7895 79.2743 95.2954 79.6112 96.0542C79.9481 96.8131 80.2008 97.4876 80.2008 98.1621C80.2008 98.8366 80.0323 99.4268 79.6954 99.9327C79.3585 100.439 78.8531 100.945 78.095 101.282C77.6739 101.45 77.3369 101.619 76.9158 101.703C76.4946 101.788 76.1577 101.788 75.7366 101.703C75.5681 101.703 75.3996 101.619 75.3154 101.535C75.2312 101.45 75.2312 101.282 75.2312 101.197C75.2312 101.029 75.3154 100.945 75.3996 100.86C75.4839 100.776 75.6523 100.776 75.8208 100.776C76.1577 100.86 76.4104 100.86 76.7473 100.776C77.0842 100.692 77.3369 100.607 77.5896 100.439C78.3477 100.101 78.7689 99.5112 78.9373 98.9209C79.1058 98.3307 78.9373 97.4876 78.5162 96.6444C78.095 95.8013 77.5896 95.2954 76.9158 94.9581C76.3262 94.7052 75.5681 94.7895 74.8942 95.1267C74.6415 95.2954 74.3889 95.464 74.1362 95.6326C73.8835 95.8856 73.715 96.0542 73.5465 96.3915C73.4623 96.5601 73.3781 96.6444 73.2096 96.6444C73.1254 96.6444 72.9569 96.6444 72.8727 96.5601C72.7885 96.4758 72.7042 96.3915 72.62 96.2228C72.62 96.0542 72.62 95.9699 72.7042 95.8013C72.8727 95.464 73.1254 95.1267 73.3781 94.7895C73.7992 94.7052 74.1362 94.4522 74.4731 94.1993Z" fill="#030211"/>
<path d="M67.7346 96.8973C68.0715 96.813 68.3242 96.9817 68.4084 97.3189L69.8404 103.811C69.9246 104.149 69.7561 104.401 69.4192 104.486L66.8923 105.076C66.05 105.245 65.3761 105.245 64.8707 104.907C64.3654 104.654 64.0284 104.149 63.86 103.39C63.6915 102.799 63.7757 102.294 64.0284 101.872C64.2811 101.45 64.6181 101.113 65.1234 100.86C64.7865 100.86 64.3654 100.607 64.1127 100.27L62.8492 98.7523C62.6807 98.5837 62.5965 98.415 62.6807 98.2464C62.765 98.0778 62.8492 97.9934 63.1019 97.9091C63.2704 97.9091 63.3546 97.9091 63.5231 97.9091C63.6073 97.9091 63.7757 97.9934 63.86 98.1621L65.4604 100.017C65.7131 100.27 65.8815 100.439 66.1342 100.439C66.3869 100.523 66.6396 100.523 66.8923 100.439L68.0715 100.186L67.4819 97.5719C67.2292 97.2346 67.3977 96.9817 67.7346 96.8973ZM68.0715 101.029L66.2184 101.45C65.1234 101.703 64.7023 102.294 64.8707 103.221C65.0392 104.149 65.7131 104.401 66.8081 104.233L68.6611 103.811L68.0715 101.029Z" fill="#030211"/>
<path d="M54.9315 98.4149C55.6896 98.4149 56.2792 98.5836 56.8688 99.0052C57.3742 99.3424 57.7954 99.8483 58.048 100.439C58.3007 101.029 58.4692 101.788 58.385 102.546C58.385 103.39 58.2165 104.064 57.8796 104.654C57.5427 105.245 57.1215 105.666 56.6161 106.003C56.0265 106.341 55.4369 106.425 54.6788 106.425C53.9207 106.425 53.3311 106.256 52.8257 105.919C52.3203 105.582 51.8992 105.076 51.6465 104.486C51.3938 103.895 51.2253 103.221 51.3096 102.378C51.3096 101.535 51.478 100.86 51.815 100.27C52.1519 99.6797 52.573 99.2581 53.0784 98.9208C53.5838 98.4993 54.2577 98.3306 54.9315 98.4149ZM54.9315 99.3424C54.1734 99.3424 53.5838 99.5954 53.0784 100.101C52.6573 100.607 52.4046 101.366 52.4046 102.293C52.4046 103.221 52.573 103.98 52.9942 104.486C53.4153 104.992 54.005 105.329 54.763 105.329C55.5211 105.329 56.1107 105.076 56.6161 104.57C57.0373 104.064 57.29 103.305 57.29 102.378C57.29 101.45 57.1215 100.691 56.7004 100.186C56.2792 99.6797 55.6896 99.4267 54.9315 99.3424Z" fill="#030211"/>
<path d="M46.5084 97.3189C46.8453 97.4032 47.0138 97.6561 46.9296 98.0777L45.1607 104.401C45.0765 104.739 44.8238 104.907 44.4869 104.823C44.1499 104.739 43.9815 104.486 44.0657 104.148L45.7503 98.162L42.4653 97.2346C42.1284 97.1502 42.0442 96.9816 42.1284 96.6443C42.2126 96.3071 42.4653 96.2228 42.718 96.3071L46.5084 97.3189Z" fill="#030211"/>
<path d="M38.1695 94.3678C38.5065 94.5364 38.5907 94.7894 38.4222 95.1266L35.3057 100.944C35.1372 101.282 34.8845 101.366 34.5476 101.197C34.2107 101.029 34.1265 100.776 34.2949 100.439L37.243 94.958L34.2107 93.356C33.8738 93.1874 33.8738 93.0187 33.958 92.6815C34.1265 92.4285 34.3791 92.3442 34.6318 92.5128L38.1695 94.3678Z" fill="#030211"/>
<path d="M26.293 85.6833C26.5457 86.0205 26.5457 86.2735 26.2087 86.5264L21.2391 90.7422C20.9022 90.9952 20.6495 90.9952 20.3968 90.6579L19.0491 89.0559C18.2068 88.0441 17.8699 87.1166 17.9541 86.1892C18.0383 85.2617 18.5437 84.3342 19.4703 83.5754C20.3968 82.8165 21.4076 82.3949 22.3341 82.5636C23.2607 82.6479 24.1872 83.2381 25.0295 84.1656L26.293 85.6833ZM25.198 85.8519L24.1872 84.6715C22.9237 83.2381 21.576 83.0695 20.1441 84.3342C18.628 85.599 18.5437 86.948 19.723 88.3814L20.7337 89.5618L25.198 85.8519Z" fill="#030211"/>
<path d="M18.7964 74.3006C19.1333 74.9752 19.2176 75.6497 19.1333 76.2399C19.0491 76.8301 18.7964 77.4203 18.3753 77.9262C17.9541 78.4321 17.3645 78.8537 16.6906 79.191C15.9326 79.5282 15.2587 79.6969 14.5849 79.6969C13.911 79.6969 13.3214 79.4439 12.816 79.1067C12.3106 78.7694 11.8895 78.2635 11.5526 77.589C11.2156 76.9144 11.1314 76.2399 11.2156 75.6497C11.2999 75.0595 11.5526 74.4693 11.9737 73.9634C12.3949 73.4575 12.9845 73.0359 13.6583 72.6986C14.4164 72.3614 15.0903 72.1927 15.7641 72.1927C16.4379 72.1927 17.0276 72.3614 17.533 72.783C18.0383 73.1202 18.4595 73.6261 18.7964 74.3006ZM17.8699 74.7222C17.533 74.0477 17.0276 73.6261 16.4379 73.4575C15.7641 73.2889 15.006 73.3732 14.1637 73.7948C13.3214 74.2163 12.7318 74.7222 12.4791 75.3124C12.2264 75.9026 12.2264 76.5772 12.5633 77.2517C12.9002 77.9262 13.4056 78.3478 13.9953 78.5164C14.6691 78.6851 15.4272 78.6008 16.2695 78.1792C17.1118 77.7576 17.7014 77.2517 18.0383 76.6615C18.2068 76.0713 18.2068 75.3968 17.8699 74.7222Z" fill="#030211"/>
<path d="M15.5956 64.6043C15.5956 64.9416 15.5114 65.1102 15.1745 65.2788L8.77293 68.3985C8.60447 68.4828 8.43601 68.4828 8.26754 68.3985C8.09908 68.3142 8.01485 68.1456 8.01485 67.9769C8.01485 67.8083 8.01485 67.724 8.09908 67.5554C8.18331 67.471 8.26754 67.3867 8.436 67.3024L13.8268 64.6886L7.93062 63.4239C7.5937 63.3396 7.42523 63.1709 7.341 62.918C7.341 62.7494 7.341 62.665 7.42523 62.5807C7.50946 62.4964 7.5937 62.4121 7.76216 62.3278L13.2372 59.714L7.25677 58.4492C7.08831 58.4492 7.00408 58.3649 6.91985 58.2806C6.91985 58.1963 6.83562 58.112 6.83562 57.9433C6.83562 57.7747 6.83562 57.6061 7.00408 57.5218C7.08831 57.4375 7.25677 57.3531 7.50946 57.4375L14.4164 58.9551C14.5849 59.0395 14.7533 59.0395 14.8376 59.1238C14.9218 59.2081 15.006 59.2924 15.006 59.461C15.006 59.6297 15.006 59.7983 14.9218 59.8826C14.8376 59.9669 14.7533 60.0512 14.5849 60.1356L9.27831 62.7494L15.0903 64.0141C15.2587 64.0141 15.4272 64.0984 15.5114 64.1827C15.5114 64.3514 15.5956 64.4357 15.5956 64.6043Z" fill="#030211"/>
<path d="M15.1745 51.8725C15.0903 52.2098 14.9218 52.3784 14.5006 52.2941L7.84639 51.0294C7.67793 51.0294 7.50947 50.945 7.42524 50.7764C7.34101 50.6921 7.34101 50.5235 7.34101 50.3548C7.34101 50.1862 7.42524 50.1019 7.50947 50.1019C7.5937 50.0176 7.67793 50.0176 7.84639 49.9332L14.0795 46.8136L8.77293 45.8018C8.43601 45.7175 8.26755 45.5488 8.35178 45.2116C8.52024 44.8743 8.6887 44.79 9.02563 44.79L15.6799 46.0547C15.8483 46.0547 15.9326 46.139 16.0168 46.2233C16.101 46.3077 16.101 46.4763 16.101 46.5606C16.101 46.7292 16.0168 46.8136 15.9326 46.8979C15.8483 46.9822 15.7641 47.0665 15.5956 47.0665L9.27832 50.1862L14.5849 51.198C15.0903 51.3666 15.2587 51.5353 15.1745 51.8725Z" fill="#030211"/>
<circle cx="17" cy="34" r="3" fill="#030211"/>
<circle cx="97" cy="80" r="3" fill="#030211"/>
</svg>
